<svg xmlns="http://www.w3.org/2000/svg" viewBox="0 0 329.09 479.28"><defs><style>.a{fill:#adadad;}.b{font-size:37px;letter-spacing:0.1em;}.b,.h,.k{fill:#93833e;}.b,.h{font-family:Herb;}.c{letter-spacing:0.07em;}.d{letter-spacing:0.09em;}.e{letter-spacing:0.1em;}.f{letter-spacing:0.09em;}.g{fill:#1a1c1a;}.h{font-size:40px;letter-spacing:0.2em;}.i{letter-spacing:0.18em;}.j{letter-spacing:0.17em;}.l{fill:#242e47;}</style></defs><polygon class="a" points="188.31 416.66 122.43 414.68 157.08 474.69 188.31 416.66"/><rect class="a" x="123.51" y="335.12" width="26.26" height="81.48"/><rect class="a" x="160.77" y="339.13" width="26.26" height="77.47"/><rect class="a" x="123.51" y="257.51" width="26.26" height="19.74"/><rect class="a" x="160.77" y="264.96" width="26.26" height="19.74"/><rect class="a" x="123.51" y="165.75" width="26.26" height="31.47"/><rect class="a" x="160.77" y="165.75" width="26.26" height="39.49"/><text class="b" transform="matrix(0.98, 0.21, -0.21, 0.98, 34.11, 217.7)">E<tspan class="c" x="20.98" y="0">X</tspan><tspan class="d" x="42.22" y="0">C</tspan><tspan class="e" x="64.12" y="0">ALI</tspan><tspan class="f" x="123.69" y="0">B</tspan><tspan x="148.04" y="0">UR</tspan></text><path class="g" d="M394.05,365.61l-17.8-28,17.28-19.48a5.51,5.51,0,0,0-3-9L300,289.58l30.58-6.76a5.42,5.42,0,0,0,4.32-5.35V223.35a5.51,5.51,0,0,0-4.34-5.38L282.4,207.61V165.75h7.13a18.13,18.13,0,1,0,0-36.26H267.76V29.43A14.87,14.87,0,0,0,264.7,0H214.57a14.87,14.87,0,0,0-3.06,29.43V129.49H189.75a18.13,18.13,0,0,0,0,36.26h7.13V189.2L91,166.43a5.5,5.5,0,0,0-5.8,8.32l17.81,28L85.75,222.27a5.51,5.51,0,0,0,3,9l90.55,19.48-30.58,6.74a5.5,5.5,0,0,0-4.32,5.37V317a5.51,5.51,0,0,0,4.35,5.38l48.17,10.36v84.68a5.44,5.44,0,0,0,.91,3l37.26,56.35a5.49,5.49,0,0,0,9.17,0l37.26-56.35a5.44,5.44,0,0,0,.91-3V351.15l105.86,22.78a5.79,5.79,0,0,0,1.16.12,5.49,5.49,0,0,0,4.64-8.44ZM196.87,267.38l-21.16-4.55,21.16-4.66Zm11-10.44,26.27,5.65V275.4l-26.27-5.65Zm37.26,8,26.26,5.65v12.81l-26.26-5.65Zm37.26,8,21.17,4.56-21.17,4.66Zm-11-67.73-26.26-5.65V165.75h26.26ZM256.76,85.12H222.51v-11h34.25Zm0-22H222.51v-11h34.25Zm0-22H222.51V29.75h34.25Zm-34.25,55h34.25v11H222.51ZM214.57,11H264.7a3.88,3.88,0,0,1,0,7.75H214.58a3.88,3.88,0,0,1,0-7.75Zm7.94,107.12h34.25v11.37H222.51Zm-39.89,29.5a7.14,7.14,0,0,1,7.13-7.13h99.78a7.13,7.13,0,1,1,0,14.26H189.75A7.14,7.14,0,0,1,182.62,147.62Zm25.26,18.13h26.25v31.47l-26.25-5.65ZM114,207a5.51,5.51,0,0,0,.53-6.6l-13-20.45,222.36,47.85v42.87L100.23,222.52Zm93.87,128.13,26.25,5.65V455.49l-26.25-39.72Zm63.51,80.65-26.26,39.72V343.14l26.26,5.65Zm-116-103.2V269.7l223.68,48.13-13.78,15.54a5.51,5.51,0,0,0-.53,6.6l13,20.44Z" transform="translate(-84.37)"/><text class="h" transform="matrix(0.98, 0.21, -0.21, 0.98, 97.39, 310.64)">VI<tspan class="i" x="49.64" y="0">B</tspan><tspan x="79.56" y="0">O</tspan><tspan class="j" x="109.8" y="0">R</tspan><tspan x="139.64" y="0">G</tspan></text><rect class="k" x="98.25" y="140.57" width="114.04" height="14.18" rx="7.09"/><rect class="l" x="138.15" y="29.75" width="34.25" height="11.37"/><rect class="l" x="138.15" y="52.04" width="34.25" height="11.37"/><rect class="l" x="138.15" y="73.93" width="34.25" height="11.37"/><rect class="l" x="138.15" y="95.93" width="34.25" height="11.37"/><rect class="l" x="138.15" y="118.12" width="34.25" height="11.37"/><rect class="k" x="126.33" y="11" width="57.87" height="7.75" rx="3.87"/></svg>