<svg xmlns="http://www.w3.org/2000/svg" viewBox="0 0 329.09 479.28"><defs><style>.a{fill:#f2f2f2;}.b{font-size:37px;letter-spacing:0.1em;}.b,.i,.l{fill:#93833e;}.b,.i{font-family:Herb;}.c{letter-spacing:0.07em;}.d{letter-spacing:0.09em;}.e{letter-spacing:0.1em;}.f{letter-spacing:0.09em;}.g{fill:#adadad;}.h{fill:#1a1c1a;}.i{font-size:40px;letter-spacing:0.2em;}.j{letter-spacing:0.18em;}.k{letter-spacing:0.17em;}.m{fill:#242e47;}</style></defs><rect class="a" x="177.75" y="112.45" width="48.43" height="229.04" transform="translate(-133.4 377.34) rotate(-78)"/><rect class="a" x="225.32" y="200.2" width="48.23" height="229.18" transform="translate(-181.7 493.33) rotate(-78)"/><rect class="a" x="91.73" y="170.14" width="14.27" height="30.7" transform="translate(-174.5 243.63) rotate(-78)"/><rect class="a" x="354.22" y="351.4" width="12.73" height="10.33" transform="translate(-134.53 635.14) rotate(-78)"/><text class="b" transform="matrix(0.98, 0.21, -0.21, 0.98, 34.11, 217.7)">E<tspan class="c" x="20.98" y="0">X</tspan><tspan class="d" x="42.22" y="0">C</tspan><tspan class="e" x="64.12" y="0">ALI</tspan><tspan class="f" x="123.69" y="0">B</tspan><tspan x="148.04" y="0">UR</tspan></text><polygon class="g" points="188.31 416.66 122.43 414.68 157.08 474.69 188.31 416.66"/><rect class="g" x="123.51" y="335.12" width="26.26" height="81.48"/><rect class="g" x="160.77" y="339.13" width="26.26" height="77.47"/><rect class="g" x="123.51" y="257.51" width="26.26" height="19.74"/><rect class="g" x="160.77" y="264.96" width="26.26" height="19.74"/><rect class="g" x="123.51" y="165.75" width="26.26" height="31.47"/><rect class="g" x="160.77" y="165.75" width="26.26" height="39.49"/><path class="h" d="M381.05,365.61l-17.81-28,17.28-19.48a5.51,5.51,0,0,0-2.95-9L287,289.58l30.58-6.76a5.42,5.42,0,0,0,4.32-5.35V223.35a5.51,5.51,0,0,0-4.34-5.38l-48.18-10.36V165.75h7.13a18.13,18.13,0,0,0,0-36.26H254.76V29.43A14.87,14.87,0,0,0,251.7,0H201.57a14.87,14.87,0,0,0-3.06,29.43V129.49H176.75a18.13,18.13,0,0,0,0,36.26h7.12V189.2L78,166.43a5.5,5.5,0,0,0-5.8,8.32l17.81,28L72.75,222.27a5.51,5.51,0,0,0,3,9l90.55,19.48-30.58,6.74a5.5,5.5,0,0,0-4.32,5.37V317a5.51,5.51,0,0,0,4.35,5.38l48.16,10.36v84.68a5.52,5.52,0,0,0,.91,3L222,476.81a5.5,5.5,0,0,0,9.18,0l37.26-56.35a5.44,5.44,0,0,0,.91-3V351.15l105.86,22.78a5.71,5.71,0,0,0,1.16.12,5.49,5.49,0,0,0,4.64-8.44ZM183.87,267.38l-21.16-4.55,21.16-4.66Zm11-10.44,26.26,5.65V275.4l-26.26-5.65Zm37.26,8,26.26,5.65v12.81l-26.26-5.65Zm37.26,8,21.17,4.56-21.17,4.66Zm-11-67.73-26.26-5.65V165.75h26.26ZM243.76,85.12H209.51v-11h34.25Zm0-22H209.51v-11h34.25Zm0-22H209.51V29.75h34.25Zm-34.25,55h34.25v11H209.51ZM201.57,11H251.7a3.88,3.88,0,0,1,0,7.75H201.57a3.88,3.88,0,0,1,0-7.75Zm7.94,107.12h34.25v11.37H209.51Zm-39.89,29.5a7.13,7.13,0,0,1,7.13-7.13h99.77a7.13,7.13,0,0,1,0,14.26H176.75A7.13,7.13,0,0,1,169.62,147.62Zm25.25,18.13h26.26v31.47l-26.26-5.65ZM101,207a5.51,5.51,0,0,0,.52-6.6l-13-20.45,222.36,47.85v42.87L87.23,222.52Zm93.86,128.13,26.26,5.65V455.49l-26.26-39.72Zm63.52,80.65-26.26,39.72V343.14l26.26,5.65Zm-116-103.2V269.7L366,317.83l-13.77,15.54a5.49,5.49,0,0,0-.53,6.6l13,20.44Z" transform="translate(-71.36)"/><text class="i" transform="matrix(0.98, 0.21, -0.21, 0.98, 97.39, 310.64)">VI<tspan class="j" x="49.64" y="0">B</tspan><tspan x="79.56" y="0">O</tspan><tspan class="k" x="109.8" y="0">R</tspan><tspan x="139.64" y="0">G</tspan></text><rect class="l" x="98.25" y="140.57" width="114.04" height="14.18" rx="7.09"/><rect class="m" x="138.15" y="29.75" width="34.25" height="11.37"/><rect class="m" x="138.15" y="52.04" width="34.25" height="11.37"/><rect class="m" x="138.15" y="73.93" width="34.25" height="11.37"/><rect class="m" x="138.15" y="95.93" width="34.25" height="11.37"/><rect class="m" x="138.15" y="118.12" width="34.25" height="11.37"/><rect class="l" x="126.33" y="11" width="57.87" height="7.75" rx="3.87"/></svg>