<?xml version="1.0"?>
<svg xmlns:rdf="http://www.w3.org/1999/02/22-rdf-syntax-ns#" xmlns="http://www.w3.org/2000/svg" xmlns:cc="http://web.resource.org/cc/" xmlns:xlink="http://www.w3.org/1999/xlink" xmlns:dc="http://purl.org/dc/elements/1.1/" xmlns:svg="http://www.w3.org/2000/svg" id="svg2" viewBox="0 0 199.7 267.02" version="1.0">
  <defs id="defs4">
    <pattern id="Wavy" width="30.066020" patternUnits="userSpaceOnUse" height="5.1805778">
      <path id="path4651" d="m7.597 0.061c-2.518-0.248-4.941 0.241-7.607 1.727v1.273c2.783-1.63 5.183-2.009 7.482-1.781 2.298 0.228 4.497 1.081 6.781 1.938 4.567 1.713 9.551 3.458 15.813-0.157l-0.004-1.273c-6.44 3.709-10.816 1.982-15.371 0.273-2.278-0.854-4.576-1.75-7.094-2z"/>
    </pattern>
    <filter id="filter3663">
      <feGaussianBlur id="feGaussianBlur3665" stdDeviation="0.48009458"/>
    </filter>
    <filter id="filter3640">
      <feGaussianBlur id="feGaussianBlur3642" stdDeviation="2.1452517"/>
    </filter>
    <filter id="filter3720" y="-.067599" width="1.6309" x="-.31546" height="1.1352">
      <feGaussianBlur id="feGaussianBlur3722" stdDeviation="0.56332856"/>
    </filter>
    <filter id="filter4318">
      <feGaussianBlur id="feGaussianBlur4320" stdDeviation="1.2039195"/>
    </filter>
    <filter id="filter4342" y="-.12303" width="1.5849" x="-.29243" height="1.2461">
      <feGaussianBlur id="feGaussianBlur4344" stdDeviation="1.4618913"/>
    </filter>
    <radialGradient id="radialGradient6861" gradientUnits="userSpaceOnUse" cy="762.45" cx="-273.51" gradientTransform="matrix(1 0 0 .56338 0 332.9)" r="21.992">
      <stop id="stop6857" stop-color="#fff" offset="0"/>
      <stop id="stop6859" stop-color="#fff" stop-opacity="0" offset="1"/>
    </radialGradient>
    <radialGradient id="radialGradient6900" gradientUnits="userSpaceOnUse" cy="823.78" cx="-173.15" gradientTransform="matrix(.46489 -.0000018279 .0000035979 .91508 -92.656 69.957)" r="11.461">
      <stop id="stop6896" stop-color="#f6adcd" offset="0"/>
      <stop id="stop6898" stop-color="#c41562" offset="1"/>
    </radialGradient>
    <linearGradient id="linearGradient6908" y2="896.53" gradientUnits="userSpaceOnUse" x2="-166.04" y1="896.53" x1="-207.39">
      <stop id="stop6904" stop-color="#552d21" offset="0"/>
      <stop id="stop6906" stop-color="#7b4231" offset="1"/>
    </linearGradient>
    <radialGradient id="radialGradient3301" gradientUnits="userSpaceOnUse" cy="44.711" cx="149.07" gradientTransform="matrix(.97934 -.00076885 .00082165 1.0466 2.9902 -2.0775)" r="26.478">
      <stop id="stop3297" stop-color="#fff" offset="0"/>
      <stop id="stop3299" stop-color="#fff" stop-opacity="0" offset="1"/>
    </radialGradient>
  </defs>
  <g id="layer2" transform="translate(221.75 -795.41)">
    <path id="path6890" stroke-linejoin="round" d="m-322.45 995.69c1.24 0 43.68-4.03 43.68-4.03s-12.39-7.43-16.42-7.43c-4.02 0-14.56 0.31-19.2 3.09-4.65 2.79-8.68 8.06-8.06 8.37z" fill-rule="evenodd" transform="translate(120.21 59.693)" stroke="#000" stroke-linecap="round" stroke-width=".5"/>
    <path id="path6863" d="m-322.76 842.36s-4.33 1.24-8.67 1.86-6.19 1.86-6.19 1.86l-4.34 24.78c1.49-3.86 13.74-18.8 17.66-15.49 3.09 2.48 21.99 11.15 23.85 14.25 1.85 3.1 26.63 16.11 26.63 16.11l36.55-9.91 5.58-11.16s9.29 1.86 13.63-7.43 6.19-19.2 6.19-19.2 6.2-1.86-1.24-1.86c-7.43 0-109.65 6.19-109.65 6.19z" fill="#84401e" transform="translate(120.21 59.693)" fill-rule="evenodd"/>
    <path id="path6431" stroke-linejoin="round" d="m-177.47 1028.8c2.55-18.7-1.03-37.47 3.08-56.21l-8.57-18.95-4.73 34.32-15.12-4.87c0.37-17.85 3.67-41.57 14.58-48.56l16.81 2.75 25.8-44.25 21.9 38.35 14.57 7.56c3.56 2.21-4.66 9.15 4.42 17.12 3.2 2.8 9.641-1.08 22.997-6.01l4.051 14.63c-7.06 4.18-23.548 14.17-30.508 13.85-3.02-0.13-6.29-3.1-7.67-4.15-33.32-25.23-11.93-6.18-8.9 10.85-4.55-7.31 4.4-29.21 5.78-33.84 2.26-7.57 11.38-11.46 8.7-7.16l-14.72 79.57-20.08-39.71-32.39 44.71z" stroke="#000" stroke-linecap="round" stroke-width=".96142" fill="#ffb380"/>
    <path id="path6433" d="m-83.173 1052.5c2.858 11.7-15.293 6.7-35.327 5.5-9.85 2.6-20.63 4.3-20.62-3 0-8.2 5.16-15.7 23.41-15.7 18.239 0 28.342 3.7 32.537 13.2z" stroke="#000" stroke-width=".73572" fill="#502d16"/>
    <path id="path6451" d="m-158.54 1054c0 6.6 1.72 7.5-14.26 7.5s-22.7 0-22.7-6.5 4.53-12.5 20.51-12.5 16.45 5 16.45 11.5z" stroke="#000" stroke-width=".61419" fill="#502d16"/>
    <path id="path6455" stroke-linejoin="round" d="m-165.98 1043c0 1.4-3.75 2.5-8.37 2.5s-8.37-1.1-8.37-2.5c1.22-0.3 14.16 0.1 16.74 0z" stroke="#000" stroke-linecap="round" stroke-width=".61419" fill="#d45500"/>
    <path id="path6457" d="m-185.57 1042.6c0.61-7.2 20.43 6.3 20.35 0-0.62-7.1-20.12 6.1-20.35 0z" stroke="#000" stroke-width="1.2284" fill="none"/>
    <path id="path6461" stroke-linejoin="round" d="m-165.64 928.84l46.82-1.35c14.55 8.34 6.47 2.44 20.567 28.53-5.237 1.91-8.737 9.56-13.977 8.67l-2.57-12.84 11.5 90.75c-19.21 10.6-41.31 28.2-59.57 7.8-10.32-11.6-34.11-4.7-38.13 3.8-1.04-3.1 0.4-13.4 2.9-26.2 5.37-27.6 15.62-66.72 16.78-70.49l-4.07 15.53c-12.72 0.94-14.73-6.3-21.45-9.05 15.21-28.86 18.61-39.45 41.2-35.15z" stroke="#000" stroke-linecap="round" stroke-width=".91585" fill="#84401e"/>
    <path id="path6465" opacity=".51053" stroke-linejoin="round" d="m114.77 604.68h14.02c-33.889 14.88-28.27 44.63-20.58 43.29-8.08-0.07-11.465-3.62-16.22-5.62-1.111-16.96 5.364-34.57 22.78-37.67z" transform="matrix(.91927 .093864 -.095589 .90269 -224.84 374.18)" filter="url(#filter4318)" stroke="#c03434" stroke-linecap="round" fill="#e2807a"/>
    <path id="path6471" d="m-202.68 835.53c-6.92 35.2-5.32 54.82 2.78 71.49 8.43 17.37 53.3 27.22 61.71 27.88 8.28-0.94 32.74-17.8 34.32-32.65l6.188-58.14c-28.078-59.32-67.628-66.15-105-8.58z" fill-rule="evenodd" stroke="#000" stroke-width=".76632px" fill="#ffb380"/>
    <path id="path6812" stroke-linejoin="round" d="m-125.42 859.62c0.62 7.23 1.24 14.45 1.86 21.68 5.05 1.96 10.11 3.93 15.17 5.89 7.18-7.27 5.04-14.99 4.34-24.47-2.48-1.86-4.96-3.72-7.43-5.58-5.21-2.18-8.88 1.31-13.61 2.53l-0.19-0.01-0.14-0.04v0z" fill-rule="evenodd" stroke="#000" stroke-linecap="round" stroke-width=".5" fill="#fff"/>
    <path id="path6810" stroke-linejoin="round" d="m-176.84 866.12c-1.03 14.67-3.06 13.36 6.81 23.24 7.44-1.97 14.87-3.93 22.31-5.89 0.82-7.43 1.65-14.87 2.47-22.3-17.82-4.26-18.12-8.16-31.59 4.95z" fill-rule="evenodd" stroke="#000" stroke-linecap="round" stroke-width=".5" fill="#fff"/>
    <path id="path6473" filter="url(#filter3640)" d="m161.84 612.63c17.21 6.58-23.29 1.79-39.41-12.54-19.37-17.21-18.8-46.18-5.21-64.4-4.51-4.65-8.93 51.54 44.62 76.94z" fill="#fca" transform="matrix(1.051 0 0 .90756 -312.1 374.94)"/>
    <path id="path6479" opacity=".74211" d="m327.29 695.78a84.853 91.924 0 1 1 -169.71 0 84.853 91.924 0 1 1 169.71 0z" transform="matrix(.11333 -.024844 .032756 .14019 -210.84 780.03)" filter="url(#filter3663)" stroke="#000" stroke-width="9.5" fill="#0a550a"/>
    <path id="path6481" opacity=".74211" d="m327.29 695.78a84.853 91.924 0 1 1 -169.71 0 84.853 91.924 0 1 1 169.71 0z" transform="matrix(.092590 -.020297 .017144 .073374 -196.45 820.53)" filter="url(#filter3663)" stroke="#000" stroke-width="9.5"/>
    <path id="path6483" opacity=".86316" d="m327.29 695.78a84.853 91.924 0 1 1 -169.71 0 84.853 91.924 0 1 1 169.71 0z" transform="matrix(.054638 -.011978 .014937 .063930 -184.08 830.54)" filter="url(#filter3663)" stroke="#000" stroke-width="9.5"/>
    <path id="path6485" opacity=".86316" d="m-165.8 864.41c-1.93 2.59-1.42 6.72-2.56 5.66-1.13-1.07-1.4-4.63 0.54-7.21 1.93-2.58 4.41-3.26 5.54-2.2 1.14 1.06-1.58 1.17-3.52 3.75z" stroke="#fff9f9" stroke-width="1.1212" fill="#fff"/>
    <path id="path6487" opacity=".86316" d="m-152.66 876.34c0.4-1.28-0.25-2.64 0.27-2.49 0.53 0.16 1.02 1.36 0.62 2.64-0.4 1.29-1.21 2.02-1.73 1.86-0.52-0.15 0.44-0.72 0.84-2.01z" stroke="#fff9f9" stroke-width=".43079" fill="#fff"/>
    <path id="path6491" d="m-146.31 883.16l-24.08 5.28-4.08-3.27 5.59 5.32 22.57-7.33z" fill-rule="evenodd" stroke="#000" stroke-width=".13316px" fill="#2b0000"/>
    <path id="path6501" d="m-174.8 857.96c9.09-4.69 18.99-3.47 25.14 0.44" stroke="#000" stroke-width=".69787" fill="none"/>
    <path id="path6505" opacity=".74211" d="m327.29 695.78a84.853 91.924 0 1 1 -169.71 0 84.853 91.924 0 1 1 169.71 0z" transform="matrix(-.076738 -.024021 -.022179 .13555 -80.477 781.24)" filter="url(#filter3663)" stroke="#000" stroke-width="9.5" fill="#0a550a"/>
    <path id="path6507" opacity=".74211" d="m327.29 695.78a84.853 91.924 0 1 1 -169.71 0 84.853 91.924 0 1 1 169.71 0z" transform="matrix(-.062695 -.019625 -.011608 .070943 -90.22 820.4)" filter="url(#filter3663)" stroke="#000" stroke-width="9.5"/>
    <path id="path6509" opacity=".86316" d="m327.29 695.78a84.853 91.924 0 1 1 -169.71 0 84.853 91.924 0 1 1 169.71 0z" transform="matrix(-.036996 -.011581 -.010114 .061812 -98.596 830.07)" filter="url(#filter3663)" stroke="#000" stroke-width="9.5"/>
    <path id="path6511" opacity=".86316" d="m-110.97 862.83c1.31 2.49 0.96 6.49 1.73 5.46s0.95-4.47-0.36-6.97c-1.31-2.49-2.99-3.15-3.76-2.12-0.76 1.02 1.08 1.13 2.39 3.63z" stroke="#fff9f9" stroke-width=".90721" fill="#fff"/>
    <path id="path6513" opacity=".86316" d="m-119.87 874.36c-0.27-1.24 0.17-2.56-0.18-2.41-0.36 0.15-0.7 1.31-0.42 2.56 0.27 1.24 0.81 1.94 1.17 1.8 0.35-0.15-0.29-0.7-0.57-1.95z" stroke="#fff9f9" stroke-width=".34857" fill="#fff"/>
    <path id="path6517" d="m-124.17 880.95l16.3 5.1 2.77-3.16-3.78 5.15-15.29-7.09z" fill-rule="evenodd" stroke="#000" stroke-width=".10774px" fill="#2b0000"/>
    <path id="path6527" d="m-107.46 857.56c-6.15-4.54-12.85-3.36-17.02 0.43" stroke="#000" stroke-width=".56467" fill="none"/>
    <path id="path6531" stroke-linejoin="round" d="m-199.64 893.64c-3.39 0.18-5.24-1.06-7.75-3.38-6.94-11.55-4.7-20.42 3.27-24.47m2.74 5.84c-5.4 2.44-6.3 13.68 0.48 14.46 1.89 0.22 3.23 1.45 3.82-0.33 0.83-2.54-3.6-1.82-4.17-4.39" stroke="#000" stroke-linecap="round" stroke-width=".78071" fill="#ffb380"/>
    <path id="path6533" opacity=".93" d="m-193.18 863.27c6.45-20.78 29.27-41.1 46.22-7.89-14.55-12.34-38.08-2.03-46.22 7.89z" stroke-opacity=".81818" stroke="#000" stroke-width=".58578" fill="#fff"/>
    <path id="path6816" stroke-linejoin="round" d="m-222.4 774.22s8.68 2.48 9.91 7.43c1.24 4.96 2.48 0.62-0.62 11.15-3.09 10.53 0.62 9.92-2.47 15.49-3.1 5.58-4.96 6.2-4.96 6.2l1.24-22.93-3.1-17.34z" fill-rule="evenodd" transform="translate(120.21 59.693)" stroke="#000" stroke-linecap="round" stroke-width=".5" fill="#e6e6e6"/>
    <path id="path6535" opacity=".93" d="m-96.949 855.19c-4.431-10.84-20.201-25.79-33.351-8.58 8.92 5.49 28.02-0.86 33.351 8.58z" stroke-opacity=".81818" stroke="#000" stroke-width=".42932" fill="#fff"/>
    <path id="path6541" filter="url(#filter3720)" d="m162.39 558.78l-0.52 19.55-4.2-4.62 4.72-14.93z" fill="#fca" transform="matrix(1.0787 -.36603 .16847 .75795 -404.23 515.15)"/>
    <path id="path6824" stroke-linejoin="round" d="m-275.67 934.67c-4 9.5-24.86 23.51-32.22 15.48-3.71-5.57-4.95-12.39-4.95-12.39l-2.48 14.87c19.64 17.98 28.12-2.47 40.88-11.15 4.34-1.86 1.24-4.95 1.24-4.95l-2.47-1.86z" fill-rule="evenodd" transform="translate(120.21 59.693)" stroke="#000" stroke-linecap="round" stroke-width=".5" fill="#faca58"/>
    <path id="path6545" stroke-linejoin="round" d="m-201.79 981.1c-2.11 2.01-3.55 5.42-4.05 9.51-0.91 4.39-1.05 9.69 1.63 12.19 1.31 1.2 2.4 2.6 3.94 4.8 0.71 1 3.17 1.2 5.28 0.6 0.67-0.2 1.58 0 2.35-0.1 1.2-0.2 1.67-1 2.5-1.2 7.29-2.2 1.78-5.3 0.55-7.43-2.39-4.23-1.25-9.02 2.32-3.72 0.83 1.22-0.55 1.33-0.79 3.72-0.04 0.49 1.66 4.03 3.06 2.23 4.82-5.96-0.08-11.62-2.75-18.94" stroke="#000" stroke-linecap="round" stroke-width="1.0456" fill="#ffb380"/>
    <path id="path6547" d="m-199.99 996.44l1.76 6.16 3.43 5.4" stroke="#000" stroke-width="1.0787px" fill="none"/>
    <path id="path6549" d="m-203.76 995.89l1.1 6.91 1.43 3.2" stroke="#000" stroke-width="1.0787px" fill="none"/>
    <path id="path6551" d="m-195.42 997.14l2.23 5.16 3 4.4" stroke="#000" stroke-width="1.0787px" fill="none"/>
    <path id="path6553" d="m-101.49 956.76c-2.71 1.7-4.76 7.32-5.95 11.27" stroke="#000" stroke-width=".91585px" fill="none"/>
    <path id="path6832" stroke-linejoin="round" d="m-193.28 884.49l1.24-30.98s2.48 0.62 3.71-3.09c1.24-3.72 4.34-6.2 0-8.06-4.33-1.86-8.05 0.62-8.05-8.67s3.1-23.54 3.1-23.54 17.34-13.63 22.3 0 7.43 24.16 0 23.54-12.39-4.34-9.29 1.24c3.1 5.57 6.81 5.57 5.57 9.91s-7.43 4.34-8.67 8.05c-1.24 3.72-2.48 16.73-1.86 21.07 0.62 4.33-0.62 21.06-1.24 33.45s-1.86 24.78-3.09 40.89c-1.24 16.1-4.34 27.25-2.48 32.83 1.86 5.57 8.05 10.53 0.62 6.19-7.44-4.33-17.35-6.81-15.49-12.39 1.86-5.57 4.34-11.77 6.19-16.72 1.86-4.96 4.96-10.53 3.1-19.21-1.86-8.67-3.72-10.53-2.48-14.86 1.24-4.34 1.86 3.09 3.72-11.77 1.86-14.87 1.86-17.97 1.86-17.97l1.24-9.91z" fill-rule="evenodd" transform="translate(120.21 59.693)" stroke="#000" stroke-linecap="round" stroke-width=".5" fill="url(#linearGradient6908)"/>
    <path id="path6559" stroke-linejoin="round" d="m-88.482 952.06c1.075-2.77 7.202-6.38 10.286-7.44 2.334-0.8 11.39 2.14 11.398 2.97 0.013 1.39-1.317 3.15-4.183 2.16-6.697-0.32-0.412 2.81 3.871 1.35 1.243-0.33 13.281-1.16 6.344 2.6 3.711-0.25 7.934 1.45 2.285 3.92 4.288 0.58 0.035 3.24-1.338 4.55 3.539 3.65-9.392 7.19-16.283 6.54-3.685-0.71-6.618-2.23-8.759-4.19" stroke="#000" stroke-linecap="round" stroke-width="1.0057" fill="#ffb380"/>
    <path id="path6561" d="m-58.996 961.64c-3.867 0.31-9.438 3.53-13.271 1.84" stroke="#000" stroke-width=".66246px" fill="none"/>
    <path id="path6563" d="m-57.154 957.13c-4.714 1.08-11.479 2.36-13.449 1.33" stroke="#000" stroke-width=".66246px" fill="none"/>
    <path id="path6565" d="m-60.593 953.91c-8.506 0.85-8.201 1.77-11.468 0.75" stroke="#000" stroke-width=".66246px" fill="none"/>
    <path id="path6567" d="m-73.113 950.11c-2.969 3.82-5.938 4.37-8.907 4.54" stroke="#000" stroke-width=".91585px" fill="none"/>
    <path id="path6569" d="m-74.242 955.45l-0.948 8" stroke="#000" stroke-width=".91585px" fill="none"/>
    <path id="path6814" stroke-linejoin="round" d="m-313.46 771.74s-5.58 8.05-1.86 14.87c3.72 6.81-1.86 9.91-0.62 16.11 1.24 6.19 3.1 13 0 9.29-3.1-3.72-3.72-8.37-7.44-6.51-3.71 1.86-6.5 4.34-6.5 4.34s-1.55 9.6-4.03 1.55c-2.47-8.06-5.57-9.29-3.71-21.68 1.85-12.39 6.19-13.63 10.53-16.73 4.33-3.1 2.48-18.59 6.81-15.49 4.34 3.1 7.44 0.62 9.91 1.24 2.48 0.62 2.48 5.58 2.48 5.58l-5.57 7.43z" fill-rule="evenodd" transform="translate(120.21 59.693)" stroke="#000" stroke-linecap="round" stroke-width=".5" fill="#e6e6e6"/>
    <path id="path6820" stroke-linejoin="round" d="m-337 845.46s17.96 14.25 31.59 21.06c13.63 6.82 35.93 15.49 39.03 18.59s1.86 55.13 1.86 55.13l8.05-0.62s-2.48-43.98 0-50.8c2.48-6.81 3.1-8.05 8.67-11.77 5.58-3.71 6.2-6.81 16.11-9.91 19.83-4.04 19.59-13.12 21.68-30.97l-5.57 0.62c-2.95 21.02-1.19 20.59-18.59 27.26-6.81 3.09-17.34 8.67-21.68 14.24-4.34 5.58-7.43 3.72-9.91 1.24s-31.6-13.63-40.89-17.96c-9.29-4.34-23.54-17.35-23.54-17.35l-6.81 1.24z" fill-rule="evenodd" transform="translate(120.21 59.693)" stroke="#000" stroke-linecap="round" stroke-width=".5" fill="#faca58"/>
    <path id="path6826" stroke-linejoin="round" d="m-249.66 933.43c5.93 7.69 13.68 13.85 23.55 14.87l0.61 3.71c-5.35 2.43-19.47-8.22-24.16-13.63-1.85-2.47-1.85-4.33 0-4.95z" fill-rule="evenodd" transform="translate(120.21 59.693)" stroke="#000" stroke-linecap="round" stroke-width=".5" fill="#faca58"/>
    <path id="path6467" opacity=".42105" stroke-linejoin="round" d="m212.88 617.43l7.29-2.33c9.49 7.17 3.5 49.78 8.07 60.77l-20.82 4.93 5.46-63.37z" transform="matrix(1.5147 .22844 -.23069 1.4999 -356.95 -24.34)" filter="url(#filter4342)" stroke="#c0343d" stroke-linecap="round" stroke-width=".67065" fill="#e9afaf"/>
    <path id="path4741" stroke-linejoin="round" d="m-337 845.46s17.96 14.25 31.59 21.06c13.63 6.82 35.93 15.49 39.03 18.59s1.86 55.13 1.86 55.13l8.05-0.62s-2.48-43.98 0-50.8c2.48-6.81 3.1-8.05 8.67-11.77 5.58-3.71 6.2-6.81 16.11-9.91 19.83-4.04 19.59-13.12 21.68-30.97l-5.57 0.62c-2.95 21.02-1.19 20.59-18.59 27.26-6.81 3.09-17.34 8.67-21.68 14.24-4.34 5.58-7.43 3.72-9.91 1.24s-31.6-13.63-40.89-17.96c-9.29-4.34-23.54-17.35-23.54-17.35l-6.81 1.24z" fill-rule="evenodd" transform="translate(120.21 59.693)" stroke="#000" stroke-linecap="round" stroke-width=".5" fill="url(#Wavy)"/>
    <path id="path6828" stroke-linejoin="round" d="m-327.71 902.45l-3.1 8.06s6.82 5.57 12.39 6.19c8.29 0.14 13.29 7.32 14.25 4.34 1.24-5.58 4.34-7.44 1.24-7.44s2.79 1.24-6.82-0.62c-9.52-1.84-7.43-4.33-13.01-6.81-5.57-2.48-6.81-3.72-4.95-3.72z" fill-rule="evenodd" transform="translate(120.21 59.693)" stroke="#000" stroke-linecap="round" fill="#faca58"/>
    <path id="path6830" stroke-linejoin="round" d="m-216.2 895.02s-1.86-3.1-5.58-1.24-4.95 5.58-6.81 8.05c-1.86 2.48-4.34 4.34-4.34 4.34l1.86 9.91s0-0.62 6.19-7.43c6.2-6.82 3.72-1.86 7.44-7.44 3.72-5.57 3.72-6.19 1.24-6.19z" fill-rule="evenodd" transform="translate(120.21 59.693)" stroke="#000" stroke-linecap="round" fill="#faca58"/>
    <path id="path6835" stroke-linejoin="round" d="m-287.44 856.61s-4.34 4.34-1.86 9.29c2.47 4.96 6.81 13.63 6.81 13.63l4.96-8.67 6.81 9.29 3.72-4.95 5.57 11.15 5.58-6.2 3.1 2.48 6.19-11.15 5.58 0.62 3.71-5.58 4.96 1.24 1.86-6.81 1.86-9.29-3.1-8.68s-19.2 5.58-30.97 6.2c-11.78 0.62-16.73-1.24-19.83 1.86-3.1 3.09-5.57 5.57-4.95 5.57z" fill-rule="evenodd" transform="translate(120.21 59.693)" stroke="#000" stroke-linecap="round" stroke-width=".5" fill="#e6e6e6"/>
    <g id="g6804" stroke="#000" stroke-width="3.8704" transform="matrix(.21060 0 0 .31696 -204.65 800.93)">
      <path id="path6806" d="m317.5 375.22c-55.5-1.74-98.5 20.55-100.36-15.36-1.9-36.77 40.45-22.48 97.5-31.78 59.14-9.64 108.93-56.6 116.79 7.73s-78.83 36.72-113.93 39.41z" fill="#fff"/>
      <path id="path6808" d="m431.43 335.93c-4.31 1.56-13.84 0.45-21.9 2.43-7.58 1.86-18.69 8.28-23.01 8.11-9.03-0.37-15.77-3.28-23.62-1.76-15.36 2.97-21.71 12.95-33.61 6.94" fill="none"/>
    </g>
    <path id="path6818" stroke-linejoin="round" d="m-265.14 836.79c-12.39 3.71-17.35-0.62-19.21 9.29s-17.34 24.78-5.57 18.58c11.77-6.19 11.15-7.43 15.48-11.77 4.34-4.33 3.1-1.85 8.68-1.85 5.57 0 3.49-3.38 6.81-3.72 7.15-0.74 5.31-4.82 7.13-3.1 3.24 3.07 5.26 3.1 7.12 0.62s0-8.67 5.58-3.72c5.57 4.96 22.3 26.64 17.34 14.87-4.95-11.77-11.15-20.44-13.63-21.68s-2.48-4.96-11.15-0.62-7.43 8.05-12.39 4.96c-4.95-3.1-6.19-3.1-6.19-1.86z" fill-rule="evenodd" transform="translate(120.21 59.693)" stroke="#000" stroke-linecap="round" stroke-width=".5" fill="#e6e6e6"/>
    <path id="path6837" d="m-251.51 762.45a21.992 12.39 0 1 1 -43.99 0 21.992 12.39 0 1 1 43.99 0z" fill="url(#radialGradient6861)" transform="matrix(1.3099 0 0 1.475 201.86 -308.36)" fill-rule="evenodd"/>
    <path id="path6865" d="m-192.97 890.06l-3.1 20.76 9.6 0.31 1.55-21.38-6.19 1.24-1.86-0.93z" fill="#7b4231" transform="translate(120.21 59.693)" fill-rule="evenodd"/>
    <path id="path6868" d="m-161.69 823.78a11.461 14.868 0 1 1 -22.92 0 11.461 14.868 0 1 1 22.92 0z" fill="url(#radialGradient6900)" transform="translate(115.25 50.4)" fill-rule="evenodd"/>
    <path id="path6888" stroke-linejoin="round" d="m-322.76 984.23l-1.85 11.15s2.47 0.62 4.33-1.86c8.46-6.71 22.26-7.9 32.22-4.34 10.82 9.24 22.1 15.42 36.55 9.91 11.7-4.8 22.57-10.95 33.45-17.34l-1.86-5.58s-6.19 1.24-10.53 3.72c-7.97 6.55-28.82 19.71-38.41 13.63-9.56-11.96-31.87-18.84-46.46-14.87-6.2 3.1-9.29 6.2-7.44 5.58z" fill-rule="evenodd" transform="translate(120.21 59.693)" stroke="#000" stroke-linecap="round" fill="#faca58"/>
    <path id="path2521" d="m149.91 74.829l-5.64-19.417-17.73 10.786 11.66-16.514-19.49-7.143 20.18-1.175-6.56-19.693 13.5 15.048 11.3-17.413-3.35 19.94 20.67-2.022-17.68 9.816 14.46 14.893-18.69-7.699-2.63 20.593z" fill="url(#radialGradient3301)" transform="matrix(1.5377 0 0 1.5377 -285.03 802.82)" fill-rule="evenodd"/>
    <path id="path5005" d="m-154.31 888.82c-9.08 4.69-18.98 3.47-25.13-0.44" stroke="#000" stroke-width=".69787" fill="none"/>
    <path id="path5007" d="m-103.43 886.96c-6.15 4.53-12.86 3.35-17.02-0.43" stroke="#000" stroke-width=".56467" fill="none"/>
    <path id="path5009" d="m-154.62 891.61c-9.08 4.69-18.98 3.47-25.13-0.44" stroke="#000" stroke-width=".69787" fill="none"/>
    <path id="path5011" d="m-103.43 889.13c-6.15 4.53-12.86 3.35-17.02-0.43" stroke="#000" stroke-width=".56467" fill="none"/>
  </g>
  <metadata>
    <rdf:RDF>
      <cc:Work>
        <dc:format>image/svg+xml</dc:format>
        <dc:type rdf:resource="http://purl.org/dc/dcmitype/StillImage"/>
        <cc:license rdf:resource="http://creativecommons.org/licenses/publicdomain/"/>
        <dc:publisher>
          <cc:Agent rdf:about="http://openclipart.org/">
            <dc:title>Openclipart</dc:title>
          </cc:Agent>
        </dc:publisher>
        <dc:title>Delfador Chibi</dc:title>
        <dc:date>2008-10-28T13:18:52</dc:date>
        <dc:description>battle for wesnoth, battle for wesnoth, character, character, chibi, chibi, clip art, clipart, comics, comics, delfador, delfador, dumbledore, dumbledore, dungeon and dragon, dungeon and dragon, fantasy, fantasy, gandalf, gandalf, gothic, gothic, image, magicien, magicien, media, medieval, medieval, middle age, middle age, minus trooper, minus trooper, png, public domain, remix, role playing, role playing, rpg, rpg, sorcerer, sorcerer, svg, warlock, warlock, wesnoth, wesnoth, wizard, wizard, </dc:description>
        <dc:source>http://openclipart.org/detail/19811/delfador-chibi-by-peileppe-19811</dc:source>
        <dc:creator>
          <cc:Agent>
            <dc:title>Peileppe</dc:title>
          </cc:Agent>
        </dc:creator>
        <dc:subject>
          <rdf:Bag>
            <rdf:li>battle for wesnoth</rdf:li>
            <rdf:li>character</rdf:li>
            <rdf:li>chibi</rdf:li>
            <rdf:li>clip art</rdf:li>
            <rdf:li>clipart</rdf:li>
            <rdf:li>comics</rdf:li>
            <rdf:li>delfador</rdf:li>
            <rdf:li>dumbledore</rdf:li>
            <rdf:li>dungeon and dragon</rdf:li>
            <rdf:li>fantasy</rdf:li>
            <rdf:li>gandalf</rdf:li>
            <rdf:li>gothic</rdf:li>
            <rdf:li>image</rdf:li>
            <rdf:li>magicien</rdf:li>
            <rdf:li>media</rdf:li>
            <rdf:li>medieval</rdf:li>
            <rdf:li>middle age</rdf:li>
            <rdf:li>minus trooper</rdf:li>
            <rdf:li>png</rdf:li>
            <rdf:li>public domain</rdf:li>
            <rdf:li>remix</rdf:li>
            <rdf:li>role playing</rdf:li>
            <rdf:li>rpg</rdf:li>
            <rdf:li>sorcerer</rdf:li>
            <rdf:li>svg</rdf:li>
            <rdf:li>warlock</rdf:li>
            <rdf:li>wesnoth</rdf:li>
            <rdf:li>wizard</rdf:li>
          </rdf:Bag>
        </dc:subject>
      </cc:Work>
      <cc:License rdf:about="http://creativecommons.org/licenses/publicdomain/">
        <cc:permits rdf:resource="http://creativecommons.org/ns#Reproduction"/>
        <cc:permits rdf:resource="http://creativecommons.org/ns#Distribution"/>
        <cc:permits rdf:resource="http://creativecommons.org/ns#DerivativeWorks"/>
      </cc:License>
    </rdf:RDF>
  </metadata>
</svg>
