<?xml version="1.0" encoding="UTF-8" standalone="no"?>
<!-- Generated by Microsoft Visio 11.0, SVG Export, v1.0 Portcullis.svg Page-1 -->

<svg
   xmlns:v="http://schemas.microsoft.com/visio/2003/SVGExtensions/"
   xmlns:dc="http://purl.org/dc/elements/1.1/"
   xmlns:cc="http://creativecommons.org/ns#"
   xmlns:rdf="http://www.w3.org/1999/02/22-rdf-syntax-ns#"
   xmlns:svg="http://www.w3.org/2000/svg"
   xmlns="http://www.w3.org/2000/svg"
   xmlns:sodipodi="http://sodipodi.sourceforge.net/DTD/sodipodi-0.dtd"
   xmlns:inkscape="http://www.inkscape.org/namespaces/inkscape"
   width="6.34375in"
   height="5in"
   viewBox="0 0 456.75 360"
   xml:space="preserve"
   color-interpolation-filters="sRGB"
   class="st2"
   id="svg2"
   version="1.1"
   inkscape:version="0.48.2 r9819"
   sodipodi:docname="Portcullis.svg"><defs
   id="defs266" /><sodipodi:namedview
   pagecolor="#ffffff"
   bordercolor="#666666"
   borderopacity="1"
   objecttolerance="10"
   gridtolerance="10"
   guidetolerance="10"
   inkscape:pageopacity="0"
   inkscape:pageshadow="2"
   inkscape:window-width="640"
   inkscape:window-height="480"
   id="namedview264"
   showgrid="false"
   inkscape:zoom="0.52444444"
   inkscape:cx="285.46875"
   inkscape:cy="225"
   inkscape:window-x="0"
   inkscape:window-y="0"
   inkscape:window-maximized="0"
   inkscape:current-layer="svg2" />
	<title
   id="title4">Portcullis</title>
	<v:documentProperties
   v:langID="1033"
   v:viewMarkup="false" />

	<style
   type="text/css"
   id="style6">
	
		.st1 {fill:#1a1c1a;stroke:#000000;stroke-linecap:round;stroke-linejoin:round;stroke-width:2.25}
		.st2 {fill:none;fill-rule:evenodd;font-size:12px;overflow:visible;stroke-linecap:square;stroke-miterlimit:3}
	
	</style>

	<g
   v:mID="0"
   v:index="1"
   v:groupContext="foregroundPage"
   id="g8">
		<title
   id="title10">Page-1</title>
		<v:pageProperties
   v:drawingScale="1"
   v:pageScale="1"
   v:drawingUnits="19"
   v:shadowOffsetX="9"
   v:shadowOffsetY="-9" />
		<g
   id="group1-1"
   transform="translate(2.25,-2.25)"
   v:mID="1"
   v:groupContext="group">
			<title
   id="title13">Portcullis</title>
			<g
   id="group2-2"
   v:mID="2"
   v:groupContext="group">
				<title
   id="title16">Sheet.2</title>
				<g
   id="group3-3"
   v:mID="3"
   v:groupContext="group">
					<title
   id="title19">Sheet.3</title>
					<g
   id="shape4-4"
   v:mID="4"
   v:groupContext="shape">
						<title
   id="title22">Sheet.4</title>
						<path
   d="M0 333.99 A26.0094 26.0094 -180 1 0 52.02 333.99 A26.0094 26.0094 -180 1 0 0 333.99 ZM11.81 333.99           A14.2005 14.2005 0 0 1 40.21 333.99 A14.2005 14.2005 0 1 1 11.81 333.99 Z"
   class="st1"
   id="path24" />
					</g>
					<g
   id="shape5-6"
   v:mID="5"
   v:groupContext="shape"
   transform="translate(0,-60.6962)">
						<title
   id="title27">Sheet.5</title>
						<path
   d="M0 333.99 A26.0094 26.0094 -180 1 0 52.02 333.99 A26.0094 26.0094 -180 1 0 0 333.99 ZM11.81 333.99           A14.2005 14.2005 0 0 1 40.21 333.99 A14.2005 14.2005 0 1 1 11.81 333.99 Z"
   class="st1"
   id="path29" />
					</g>
					<g
   id="shape6-8"
   v:mID="6"
   v:groupContext="shape"
   transform="translate(378.889,279.801) rotate(90)">
						<title
   id="title32">Rounded rectangle.43</title>
						<v:userDefs>
							<v:ud
   v:nameU="visVersion"
   v:val="VT0(14):26" />
						</v:userDefs>
						<path
   d="M40.36 360 A7.12013 7.12013 -180 0 0 47.48 352.88 A7.12013 7.12013 -180 0 0 40.36 345.76 L7.12 345.76           A7.12013 7.12013 -180 0 0 -0 352.88 A7.12013 7.12013 -180 0 0 7.12 360 L40.36 360 Z"
   class="st1"
   id="path34" />
					</g>
					<g
   id="shape7-10"
   v:mID="7"
   v:groupContext="shape"
   transform="translate(0,-121.392)">
						<title
   id="title37">Sheet.7</title>
						<path
   d="M0 333.99 A26.0094 26.0094 -180 1 0 52.02 333.99 A26.0094 26.0094 -180 1 0 0 333.99 ZM11.81 333.99           A14.2005 14.2005 0 0 1 40.21 333.99 A14.2005 14.2005 0 1 1 11.81 333.99 Z"
   class="st1"
   id="path39" />
					</g>
					<g
   id="shape8-12"
   v:mID="8"
   v:groupContext="shape"
   transform="translate(378.889,219.105) rotate(90)">
						<title
   id="title42">Rounded rectangle.30</title>
						<v:userDefs>
							<v:ud
   v:nameU="visVersion"
   v:val="VT0(14):26" />
						</v:userDefs>
						<path
   d="M40.36 360 A7.12013 7.12013 -180 0 0 47.48 352.88 A7.12013 7.12013 -180 0 0 40.36 345.76 L7.12 345.76           A7.12013 7.12013 -180 0 0 -0 352.88 A7.12013 7.12013 -180 0 0 7.12 360 L40.36 360 Z"
   class="st1"
   id="path44" />
					</g>
					<g
   id="shape9-14"
   v:mID="9"
   v:groupContext="shape"
   transform="translate(0,-182.089)">
						<title
   id="title47">Sheet.9</title>
						<path
   d="M0 333.99 A26.0094 26.0094 -180 1 0 52.02 333.99 A26.0094 26.0094 -180 1 0 0 333.99 ZM11.81 333.99           A14.2005 14.2005 0 0 1 40.21 333.99 A14.2005 14.2005 0 1 1 11.81 333.99 Z"
   class="st1"
   id="path49" />
					</g>
					<g
   id="shape10-16"
   v:mID="10"
   v:groupContext="shape"
   transform="translate(378.889,158.408) rotate(90)">
						<title
   id="title52">Rounded rectangle.37</title>
						<v:userDefs>
							<v:ud
   v:nameU="visVersion"
   v:val="VT0(14):26" />
						</v:userDefs>
						<path
   d="M40.36 360 A7.12013 7.12013 -180 0 0 47.48 352.88 A7.12013 7.12013 -180 0 0 40.36 345.76 L7.12 345.76           A7.12013 7.12013 -180 0 0 -0 352.88 A7.12013 7.12013 -180 0 0 7.12 360 L40.36 360 Z"
   class="st1"
   id="path54" />
					</g>
					<g
   id="shape11-18"
   v:mID="11"
   v:groupContext="shape"
   transform="translate(0,-242.785)">
						<title
   id="title57">Sheet.11</title>
						<path
   d="M0 333.99 A26.0094 26.0094 -180 1 0 52.02 333.99 A26.0094 26.0094 -180 1 0 0 333.99 ZM11.81 333.99           A14.2005 14.2005 0 0 1 40.21 333.99 A14.2005 14.2005 0 1 1 11.81 333.99 Z"
   class="st1"
   id="path59" />
					</g>
					<g
   id="shape12-20"
   v:mID="12"
   v:groupContext="shape"
   transform="translate(378.889,97.7121) rotate(90)">
						<title
   id="title62">Rounded rectangle.34</title>
						<v:userDefs>
							<v:ud
   v:nameU="visVersion"
   v:val="VT0(14):26" />
						</v:userDefs>
						<path
   d="M40.36 360 A7.12013 7.12013 -180 0 0 47.48 352.88 A7.12013 7.12013 -180 0 0 40.36 345.76 L7.12 345.76           A7.12013 7.12013 -180 0 0 -0 352.88 A7.12013 7.12013 -180 0 0 7.12 360 L40.36 360 Z"
   class="st1"
   id="path64" />
					</g>
					<g
   id="shape13-22"
   v:mID="13"
   v:groupContext="shape"
   transform="translate(0,-303.481)">
						<title
   id="title67">Sheet.13</title>
						<path
   d="M0 333.99 A26.0094 26.0094 -180 1 0 52.02 333.99 A26.0094 26.0094 -180 1 0 0 333.99 ZM11.81 333.99           A14.2005 14.2005 0 0 1 40.21 333.99 A14.2005 14.2005 0 1 1 11.81 333.99 Z"
   class="st1"
   id="path69" />
					</g>
					<g
   id="shape14-24"
   v:mID="14"
   v:groupContext="shape"
   transform="translate(378.889,37.0158) rotate(90)">
						<title
   id="title72">Rounded rectangle.18</title>
						<v:userDefs>
							<v:ud
   v:nameU="visVersion"
   v:val="VT0(14):26" />
						</v:userDefs>
						<path
   d="M40.36 360 A7.12013 7.12013 -180 0 0 47.48 352.88 A7.12013 7.12013 -180 0 0 40.36 345.76 L7.12 345.76           A7.12013 7.12013 -180 0 0 -0 352.88 A7.12013 7.12013 -180 0 0 7.12 360 L40.36 360 Z"
   class="st1"
   id="path74" />
					</g>
					<g
   id="shape15-26"
   v:mID="15"
   v:groupContext="shape"
   transform="translate(31.0248,-323.606)">
						<title
   id="title77">Rounded rectangle.69</title>
						<v:userDefs>
							<v:ud
   v:nameU="visVersion"
   v:val="VT0(14):26" />
						</v:userDefs>
						<path
   d="M58.94 360 A7.12013 7.12013 -180 0 0 66.06 352.88 A7.12013 7.12013 -180 0 0 58.94 345.76 L7.12 345.76           A7.12013 7.12013 -180 0 0 -0 352.88 A7.12013 7.12013 -180 0 0 7.12 360 L58.94 360 Z"
   class="st1"
   id="path79" />
					</g>
				</g>
				<g
   id="group16-28"
   transform="translate(452.25,0) scale(-1,1)"
   v:mID="16"
   v:groupContext="group">
					<title
   id="title82">Sheet.16</title>
					<g
   id="shape17-29"
   v:mID="17"
   v:groupContext="shape">
						<title
   id="title85">Sheet.17</title>
						<path
   d="M0 333.99 A26.0094 26.0094 -180 1 0 52.02 333.99 A26.0094 26.0094 -180 1 0 0 333.99 ZM11.81 333.99           A14.2005 14.2005 0 0 1 40.21 333.99 A14.2005 14.2005 0 1 1 11.81 333.99 Z"
   class="st1"
   id="path87" />
					</g>
					<g
   id="shape18-31"
   v:mID="18"
   v:groupContext="shape"
   transform="translate(0,-60.6962)">
						<title
   id="title90">Sheet.18</title>
						<path
   d="M0 333.99 A26.0094 26.0094 -180 1 0 52.02 333.99 A26.0094 26.0094 -180 1 0 0 333.99 ZM11.81 333.99           A14.2005 14.2005 0 0 1 40.21 333.99 A14.2005 14.2005 0 1 1 11.81 333.99 Z"
   class="st1"
   id="path92" />
					</g>
					<g
   id="shape19-33"
   v:mID="19"
   v:groupContext="shape"
   transform="translate(378.889,279.801) rotate(90)">
						<title
   id="title95">Rounded rectangle.43</title>
						<v:userDefs>
							<v:ud
   v:nameU="visVersion"
   v:val="VT0(14):26" />
						</v:userDefs>
						<path
   d="M40.36 360 A7.12013 7.12013 -180 0 0 47.48 352.88 A7.12013 7.12013 -180 0 0 40.36 345.76 L7.12 345.76           A7.12013 7.12013 -180 0 0 -0 352.88 A7.12013 7.12013 -180 0 0 7.12 360 L40.36 360 Z"
   class="st1"
   id="path97" />
					</g>
					<g
   id="shape20-35"
   v:mID="20"
   v:groupContext="shape"
   transform="translate(0,-121.392)">
						<title
   id="title100">Sheet.20</title>
						<path
   d="M0 333.99 A26.0094 26.0094 -180 1 0 52.02 333.99 A26.0094 26.0094 -180 1 0 0 333.99 ZM11.81 333.99           A14.2005 14.2005 0 0 1 40.21 333.99 A14.2005 14.2005 0 1 1 11.81 333.99 Z"
   class="st1"
   id="path102" />
					</g>
					<g
   id="shape21-37"
   v:mID="21"
   v:groupContext="shape"
   transform="translate(378.889,219.105) rotate(90)">
						<title
   id="title105">Rounded rectangle.30</title>
						<v:userDefs>
							<v:ud
   v:nameU="visVersion"
   v:val="VT0(14):26" />
						</v:userDefs>
						<path
   d="M40.36 360 A7.12013 7.12013 -180 0 0 47.48 352.88 A7.12013 7.12013 -180 0 0 40.36 345.76 L7.12 345.76           A7.12013 7.12013 -180 0 0 -0 352.88 A7.12013 7.12013 -180 0 0 7.12 360 L40.36 360 Z"
   class="st1"
   id="path107" />
					</g>
					<g
   id="shape22-39"
   v:mID="22"
   v:groupContext="shape"
   transform="translate(0,-182.089)">
						<title
   id="title110">Sheet.22</title>
						<path
   d="M0 333.99 A26.0094 26.0094 -180 1 0 52.02 333.99 A26.0094 26.0094 -180 1 0 0 333.99 ZM11.81 333.99           A14.2005 14.2005 0 0 1 40.21 333.99 A14.2005 14.2005 0 1 1 11.81 333.99 Z"
   class="st1"
   id="path112" />
					</g>
					<g
   id="shape23-41"
   v:mID="23"
   v:groupContext="shape"
   transform="translate(378.889,158.408) rotate(90)">
						<title
   id="title115">Rounded rectangle.37</title>
						<v:userDefs>
							<v:ud
   v:nameU="visVersion"
   v:val="VT0(14):26" />
						</v:userDefs>
						<path
   d="M40.36 360 A7.12013 7.12013 -180 0 0 47.48 352.88 A7.12013 7.12013 -180 0 0 40.36 345.76 L7.12 345.76           A7.12013 7.12013 -180 0 0 -0 352.88 A7.12013 7.12013 -180 0 0 7.12 360 L40.36 360 Z"
   class="st1"
   id="path117" />
					</g>
					<g
   id="shape24-43"
   v:mID="24"
   v:groupContext="shape"
   transform="translate(0,-242.785)">
						<title
   id="title120">Sheet.24</title>
						<path
   d="M0 333.99 A26.0094 26.0094 -180 1 0 52.02 333.99 A26.0094 26.0094 -180 1 0 0 333.99 ZM11.81 333.99           A14.2005 14.2005 0 0 1 40.21 333.99 A14.2005 14.2005 0 1 1 11.81 333.99 Z"
   class="st1"
   id="path122" />
					</g>
					<g
   id="shape25-45"
   v:mID="25"
   v:groupContext="shape"
   transform="translate(378.889,97.7121) rotate(90)">
						<title
   id="title125">Rounded rectangle.34</title>
						<v:userDefs>
							<v:ud
   v:nameU="visVersion"
   v:val="VT0(14):26" />
						</v:userDefs>
						<path
   d="M40.36 360 A7.12013 7.12013 -180 0 0 47.48 352.88 A7.12013 7.12013 -180 0 0 40.36 345.76 L7.12 345.76           A7.12013 7.12013 -180 0 0 -0 352.88 A7.12013 7.12013 -180 0 0 7.12 360 L40.36 360 Z"
   class="st1"
   id="path127" />
					</g>
					<g
   id="shape26-47"
   v:mID="26"
   v:groupContext="shape"
   transform="translate(0,-303.481)">
						<title
   id="title130">Sheet.26</title>
						<path
   d="M0 333.99 A26.0094 26.0094 -180 1 0 52.02 333.99 A26.0094 26.0094 -180 1 0 0 333.99 ZM11.81 333.99           A14.2005 14.2005 0 0 1 40.21 333.99 A14.2005 14.2005 0 1 1 11.81 333.99 Z"
   class="st1"
   id="path132" />
					</g>
					<g
   id="shape27-49"
   v:mID="27"
   v:groupContext="shape"
   transform="translate(378.889,37.0158) rotate(90)">
						<title
   id="title135">Rounded rectangle.52</title>
						<v:userDefs>
							<v:ud
   v:nameU="visVersion"
   v:val="VT0(14):26" />
						</v:userDefs>
						<path
   d="M40.36 360 A7.12013 7.12013 -180 0 0 47.48 352.88 A7.12013 7.12013 -180 0 0 40.36 345.76 L7.12 345.76           A7.12013 7.12013 -180 0 0 -0 352.88 A7.12013 7.12013 -180 0 0 7.12 360 L40.36 360 Z"
   class="st1"
   id="path137" />
					</g>
					<g
   id="shape28-51"
   v:mID="28"
   v:groupContext="shape"
   transform="translate(31.0248,-323.606)">
						<title
   id="title140">Rounded rectangle.69</title>
						<v:userDefs>
							<v:ud
   v:nameU="visVersion"
   v:val="VT0(14):26" />
						</v:userDefs>
						<path
   d="M58.94 360 A7.12013 7.12013 -180 0 0 66.06 352.88 A7.12013 7.12013 -180 0 0 58.94 345.76 L7.12 345.76           A7.12013 7.12013 -180 0 0 -0 352.88 A7.12013 7.12013 -180 0 0 7.12 360 L58.94 360 Z"
   class="st1"
   id="path142" />
					</g>
				</g>
			</g>
			<g
   id="shape29-53"
   v:mID="29"
   v:groupContext="shape"
   transform="translate(60.6531,0)">
				<title
   id="title145">Sheet.29</title>
				<path
   d="M324.1 185.25 L324.1 149.71 L324.1 116.25 L324.1 80.71 L324.1 47.25 L324.1 11.71 L288.56 11.71 L254.01 11.71         L218.47 11.71 L183.92 11.71 L148.38 11.71 L113.84 11.71 L78.3 11.71 L43.75 11.71 L8.21 11.71 L8.21 47.25         L8.21 80.71 L8.21 116.25 L8.21 149.71 L8.21 185.25 L8.21 218.71 L8.21 254.25 L8.21 292.5 L0 292.5 L25.98         360 L51.96 292.5 L43.75 292.5 L43.75 254.25 L78.3 254.25 L78.3 292.5 L70.09 292.5 L96.07 360 L122.05         292.5 L113.84 292.5 L113.84 254.25 L148.38 254.25 L148.38 292.5 L140.17 292.5 L166.15 360 L192.13 292.5         L183.92 292.5 L183.92 254.25 L218.47 254.25 L218.47 292.5 L210.26 292.5 L236.24 360 L262.22 292.5 L254.01         292.5 L254.01 254.25 L288.56 254.25 L288.56 292.5 L280.35 292.5 L306.33 360 L332.31 292.5 L324.1 292.5         L324.1 254.25 L324.1 218.71 L324.1 185.25 ZM288.56 80.71 L254.01 80.71 L254.01 47.25 L288.56 47.25 L288.56         80.71 ZM288.56 149.71 L254.01 149.71 L254.01 116.25 L288.56 116.25 L288.56 149.71 ZM288.56 218.71 L254.01         218.71 L254.01 185.25 L288.56 185.25 L288.56 218.71 ZM218.47 80.71 L183.92 80.71 L183.92 47.25 L218.47         47.25 L218.47 80.71 ZM218.47 149.71 L183.92 149.71 L183.92 116.25 L218.47 116.25 L218.47 149.71 ZM218.47         218.71 L183.92 218.71 L183.92 185.25 L218.47 185.25 L218.47 218.71 ZM43.75 185.25 L78.3 185.25 L78.3         218.71 L43.75 218.71 L43.75 185.25 ZM43.75 116.25 L78.3 116.25 L78.3 149.71 L43.75 149.71 L43.75 116.25         ZM43.75 47.25 L78.3 47.25 L78.3 80.71 L43.75 80.71 L43.75 47.25 ZM148.38 80.71 L113.84 80.71 L113.84         47.25 L148.38 47.25 L148.38 80.71 ZM148.38 149.71 L113.84 149.71 L113.84 116.25 L148.38 116.25 L148.38         149.71 ZM148.38 218.71 L113.84 218.71 L113.84 185.25 L148.38 185.25 L148.38 218.71 Z"
   class="st1"
   id="path147" />
			</g>
			<g
   id="group30-55"
   transform="translate(78.75,-117)"
   v:mID="30"
   v:groupContext="group">
				<title
   id="title150">Sheet.30</title>
				<g
   id="group31-56"
   transform="translate(0,-200.25)"
   v:mID="31"
   v:groupContext="group">
					<title
   id="title153">Sheet.31</title>
					<g
   id="shape32-57"
   v:mID="32"
   v:groupContext="shape">
						<title
   id="title156">Circle.68</title>
						<v:userDefs>
							<v:ud
   v:nameU="visVersion"
   v:val="VT0(14):26" />
						</v:userDefs>
						<path
   d="M0 351 A9 9 0 0 1 18 351 A9 9 0 1 1 0 351 Z"
   class="st1"
   id="path158" />
					</g>
					<g
   id="shape33-59"
   v:mID="33"
   v:groupContext="shape"
   transform="translate(69.75,0)">
						<title
   id="title161">Circle.3</title>
						<v:userDefs>
							<v:ud
   v:nameU="visVersion"
   v:val="VT0(14):26" />
						</v:userDefs>
						<path
   d="M0 351 A9 9 0 0 1 18 351 A9 9 0 1 1 0 351 Z"
   class="st1"
   id="path163" />
					</g>
					<g
   id="shape34-61"
   v:mID="34"
   v:groupContext="shape"
   transform="translate(139.5,0)">
						<title
   id="title166">Circle.4</title>
						<v:userDefs>
							<v:ud
   v:nameU="visVersion"
   v:val="VT0(14):26" />
						</v:userDefs>
						<path
   d="M0 351 A9 9 0 0 1 18 351 A9 9 0 1 1 0 351 Z"
   class="st1"
   id="path168" />
					</g>
					<g
   id="shape35-63"
   v:mID="35"
   v:groupContext="shape"
   transform="translate(209.25,0)">
						<title
   id="title171">Circle.5</title>
						<v:userDefs>
							<v:ud
   v:nameU="visVersion"
   v:val="VT0(14):26" />
						</v:userDefs>
						<path
   d="M0 351 A9 9 0 0 1 18 351 A9 9 0 1 1 0 351 Z"
   class="st1"
   id="path173" />
					</g>
					<g
   id="shape36-65"
   v:mID="36"
   v:groupContext="shape"
   transform="translate(279,0)">
						<title
   id="title176">Circle.6</title>
						<v:userDefs>
							<v:ud
   v:nameU="visVersion"
   v:val="VT0(14):26" />
						</v:userDefs>
						<path
   d="M0 351 A9 9 0 0 1 18 351 A9 9 0 1 1 0 351 Z"
   class="st1"
   id="path178" />
					</g>
				</g>
				<g
   id="group37-67"
   transform="translate(0,-137.25)"
   v:mID="37"
   v:groupContext="group">
					<title
   id="title181">Sheet.37</title>
					<g
   id="shape38-68"
   v:mID="38"
   v:groupContext="shape">
						<title
   id="title184">Circle.68</title>
						<v:userDefs>
							<v:ud
   v:nameU="visVersion"
   v:val="VT0(14):26" />
						</v:userDefs>
						<path
   d="M0 351 A9 9 0 0 1 18 351 A9 9 0 1 1 0 351 Z"
   class="st1"
   id="path186" />
					</g>
					<g
   id="shape39-70"
   v:mID="39"
   v:groupContext="shape"
   transform="translate(69.75,0)">
						<title
   id="title189">Circle.3</title>
						<v:userDefs>
							<v:ud
   v:nameU="visVersion"
   v:val="VT0(14):26" />
						</v:userDefs>
						<path
   d="M0 351 A9 9 0 0 1 18 351 A9 9 0 1 1 0 351 Z"
   class="st1"
   id="path191" />
					</g>
					<g
   id="shape40-72"
   v:mID="40"
   v:groupContext="shape"
   transform="translate(139.5,0)">
						<title
   id="title194">Circle.4</title>
						<v:userDefs>
							<v:ud
   v:nameU="visVersion"
   v:val="VT0(14):26" />
						</v:userDefs>
						<path
   d="M0 351 A9 9 0 0 1 18 351 A9 9 0 1 1 0 351 Z"
   class="st1"
   id="path196" />
					</g>
					<g
   id="shape41-74"
   v:mID="41"
   v:groupContext="shape"
   transform="translate(209.25,0)">
						<title
   id="title199">Circle.5</title>
						<v:userDefs>
							<v:ud
   v:nameU="visVersion"
   v:val="VT0(14):26" />
						</v:userDefs>
						<path
   d="M0 351 A9 9 0 0 1 18 351 A9 9 0 1 1 0 351 Z"
   class="st1"
   id="path201" />
					</g>
					<g
   id="shape42-76"
   v:mID="42"
   v:groupContext="shape"
   transform="translate(279,0)">
						<title
   id="title204">Circle.6</title>
						<v:userDefs>
							<v:ud
   v:nameU="visVersion"
   v:val="VT0(14):26" />
						</v:userDefs>
						<path
   d="M0 351 A9 9 0 0 1 18 351 A9 9 0 1 1 0 351 Z"
   class="st1"
   id="path206" />
					</g>
				</g>
				<g
   id="group43-78"
   transform="translate(0,-65.25)"
   v:mID="43"
   v:groupContext="group">
					<title
   id="title209">Sheet.43</title>
					<g
   id="shape44-79"
   v:mID="44"
   v:groupContext="shape">
						<title
   id="title212">Circle.68</title>
						<v:userDefs>
							<v:ud
   v:nameU="visVersion"
   v:val="VT0(14):26" />
						</v:userDefs>
						<path
   d="M0 351 A9 9 0 0 1 18 351 A9 9 0 1 1 0 351 Z"
   class="st1"
   id="path214" />
					</g>
					<g
   id="shape45-81"
   v:mID="45"
   v:groupContext="shape"
   transform="translate(69.75,0)">
						<title
   id="title217">Circle.3</title>
						<v:userDefs>
							<v:ud
   v:nameU="visVersion"
   v:val="VT0(14):26" />
						</v:userDefs>
						<path
   d="M0 351 A9 9 0 0 1 18 351 A9 9 0 1 1 0 351 Z"
   class="st1"
   id="path219" />
					</g>
					<g
   id="shape46-83"
   v:mID="46"
   v:groupContext="shape"
   transform="translate(139.5,0)">
						<title
   id="title222">Circle.4</title>
						<v:userDefs>
							<v:ud
   v:nameU="visVersion"
   v:val="VT0(14):26" />
						</v:userDefs>
						<path
   d="M0 351 A9 9 0 0 1 18 351 A9 9 0 1 1 0 351 Z"
   class="st1"
   id="path224" />
					</g>
					<g
   id="shape47-85"
   v:mID="47"
   v:groupContext="shape"
   transform="translate(209.25,0)">
						<title
   id="title227">Circle.5</title>
						<v:userDefs>
							<v:ud
   v:nameU="visVersion"
   v:val="VT0(14):26" />
						</v:userDefs>
						<path
   d="M0 351 A9 9 0 0 1 18 351 A9 9 0 1 1 0 351 Z"
   class="st1"
   id="path229" />
					</g>
					<g
   id="shape48-87"
   v:mID="48"
   v:groupContext="shape"
   transform="translate(279,0)">
						<title
   id="title232">Circle.6</title>
						<v:userDefs>
							<v:ud
   v:nameU="visVersion"
   v:val="VT0(14):26" />
						</v:userDefs>
						<path
   d="M0 351 A9 9 0 0 1 18 351 A9 9 0 1 1 0 351 Z"
   class="st1"
   id="path234" />
					</g>
				</g>
				<g
   id="group49-89"
   v:mID="49"
   v:groupContext="group">
					<title
   id="title237">Sheet.49</title>
					<g
   id="shape50-90"
   v:mID="50"
   v:groupContext="shape">
						<title
   id="title240">Circle.68</title>
						<v:userDefs>
							<v:ud
   v:nameU="visVersion"
   v:val="VT0(14):26" />
						</v:userDefs>
						<path
   d="M0 351 A9 9 0 0 1 18 351 A9 9 0 1 1 0 351 Z"
   class="st1"
   id="path242" />
					</g>
					<g
   id="shape51-92"
   v:mID="51"
   v:groupContext="shape"
   transform="translate(69.75,0)">
						<title
   id="title245">Circle.3</title>
						<v:userDefs>
							<v:ud
   v:nameU="visVersion"
   v:val="VT0(14):26" />
						</v:userDefs>
						<path
   d="M0 351 A9 9 0 0 1 18 351 A9 9 0 1 1 0 351 Z"
   class="st1"
   id="path247" />
					</g>
					<g
   id="shape52-94"
   v:mID="52"
   v:groupContext="shape"
   transform="translate(139.5,0)">
						<title
   id="title250">Circle.4</title>
						<v:userDefs>
							<v:ud
   v:nameU="visVersion"
   v:val="VT0(14):26" />
						</v:userDefs>
						<path
   d="M0 351 A9 9 0 0 1 18 351 A9 9 0 1 1 0 351 Z"
   class="st1"
   id="path252" />
					</g>
					<g
   id="shape53-96"
   v:mID="53"
   v:groupContext="shape"
   transform="translate(209.25,0)">
						<title
   id="title255">Circle.5</title>
						<v:userDefs>
							<v:ud
   v:nameU="visVersion"
   v:val="VT0(14):26" />
						</v:userDefs>
						<path
   d="M0 351 A9 9 0 0 1 18 351 A9 9 0 1 1 0 351 Z"
   class="st1"
   id="path257" />
					</g>
					<g
   id="shape54-98"
   v:mID="54"
   v:groupContext="shape"
   transform="translate(279,0)">
						<title
   id="title260">Circle.6</title>
						<v:userDefs>
							<v:ud
   v:nameU="visVersion"
   v:val="VT0(14):26" />
						</v:userDefs>
						<path
   d="M0 351 A9 9 0 0 1 18 351 A9 9 0 1 1 0 351 Z"
   class="st1"
   id="path262" />
					</g>
				</g>
			</g>
		</g>
	</g>
</svg>